<svg xmlns="http://www.w3.org/2000/svg" viewBox="0 0 1280 720" width="1280" height="720"><defs><linearGradient id="titleGradient" x1="0%" y1="0%" x2="100%" y2="0%"><stop offset="0%" stop-color="#17313A"/><stop offset="100%" stop-color="#19A38C"/></linearGradient><radialGradient id="bgDecor" cx="80%" cy="12%" r="42%"><stop offset="0%" stop-color="#5B8DEF" stop-opacity="0.08"/><stop offset="100%" stop-color="#5B8DEF" stop-opacity="0"/></radialGradient></defs><rect x="0" y="0" width="1280" height="720" rx="0" fill="#F7F9FB"/><rect x="0" y="0" width="1280" height="720" rx="0" fill="url(#bgDecor)"/><rect x="0" y="0" width="1280" height="6" rx="0" fill="url(#titleGradient)"/><text x="56" y="45" font-family="Microsoft YaHei, Arial, sans-serif" font-size="29" font-weight="bold" fill="#17313A" text-anchor="start">告警任务调度构成运营层</text><rect x="56" y="64" width="1168" height="44" rx="10" fill="#17313A"/><text x="78" y="92" font-family="Microsoft YaHei, Arial, sans-serif" font-size="18" font-weight="bold" fill="#FFFFFF" text-anchor="start">当监控与治理能力落地后，告警、任务和调度自然成为平台的运营工作台。</text><line x1="0" y1="694" x2="1280" y2="694" stroke="#D8E0E8" stroke-width="1"/><text x="40" y="711" font-family="Microsoft YaHei, Arial, sans-serif" font-size="10" font-weight="normal" fill="#8A94A3" text-anchor="start">Source: AI DataCenter repository and implemented product features</text><text x="640" y="711" font-family="Microsoft YaHei, Arial, sans-serif" font-size="10" font-weight="normal" fill="#8A94A3" text-anchor="middle">STRICTLY CONFIDENTIAL  |  AI DATACENTER SHOWCASE</text><text x="1240" y="711" font-family="Microsoft YaHei, Arial, sans-serif" font-size="10" font-weight="normal" fill="#8A94A3" text-anchor="end">16</text><rect x="88" y="174" width="340" height="460" rx="12" fill="#17313A" fill-opacity="0.05"/><rect x="84" y="168" width="340" height="460" rx="12" fill="#FFFFFF" stroke="#D8E0E8" stroke-width="1"/><rect x="84" y="168" width="340" height="6" rx="12" fill="#D9485F"/><!-- icon: triangle-exclamation -->
  <g transform="translate(112.0, 200.0) scale(1.75)" fill="#D9485F">
    <path fill-rule="evenodd" clip-rule="evenodd" d="M16 15H0V12L7 0H9L16 12V15ZM7 4H9V9H7V4ZM7 11H9V13H7V11Z"/>
  </g><text x="156" y="222" font-family="Microsoft YaHei, Arial, sans-serif" font-size="24" font-weight="bold" fill="#17313A" text-anchor="start">告警中心</text><rect x="110" y="250" width="288" height="146" rx="14" fill="#EDF2F6" stroke="#D8E0E8" stroke-width="1"/><line x1="136" y1="292" x2="370" y2="292" stroke="#D9485F" stroke-width="4"/><circle cx="176" cy="292" r="8" fill="#D9485F"/><circle cx="254" cy="292" r="8" fill="#F59E0B"/><circle cx="332" cy="292" r="8" fill="#1F9D68"/><circle cx="126" cy="440" r="5" fill="#D9485F"/><text x="142" y="446" font-family="Microsoft YaHei, Arial, sans-serif" font-size="16" font-weight="normal" fill="#1F2937" text-anchor="start">实时流</text><circle cx="126" cy="476" r="5" fill="#D9485F"/><text x="142" y="482" font-family="Microsoft YaHei, Arial, sans-serif" font-size="16" font-weight="normal" fill="#1F2937" text-anchor="start">今日记录</text><circle cx="126" cy="512" r="5" fill="#D9485F"/><text x="142" y="518" font-family="Microsoft YaHei, Arial, sans-serif" font-size="16" font-weight="normal" fill="#1F2937" text-anchor="start">历史归档</text><rect x="458" y="174" width="340" height="460" rx="12" fill="#17313A" fill-opacity="0.05"/><rect x="454" y="168" width="340" height="460" rx="12" fill="#FFFFFF" stroke="#D8E0E8" stroke-width="1"/><rect x="454" y="168" width="340" height="6" rx="12" fill="#5B8DEF"/><!-- icon: database -->
  <g transform="translate(482.0, 200.0) scale(1.75)" fill="#5B8DEF">
    <path d="M13.1371 6.91018C13.4184 6.7695 13.7123 6.59981 14 6.40001V8C14 9.65685 11.3137 11 8 11C4.68629 11 2 9.65685 2 8V6.40001C2.28772 6.59981 2.58158 6.7695 2.86293 6.91018C4.28096 7.61919 6.09998 8 8 8C9.90002 8 11.719 7.61919 13.1371 6.91018Z"/>
    <path d="M2 11.4V13C2 14.6569 4.68629 16 8 16C11.3137 16 14 14.6569 14 13V11.4C13.7123 11.5998 13.4184 11.7695 13.1371 11.9102C11.719 12.6192 9.90002 13 8 13C6.09998 13 4.28096 12.6192 2.86293 11.9102C2.58158 11.7695 2.28772 11.5998 2 11.4Z"/>
    <path d="M8 0C11.3137 0 14 1.34315 14 3C14 4.65685 11.3137 6 8 6C4.68629 6 2 4.65685 2 3C2 1.34315 4.68629 0 8 0Z"/>
  </g><text x="526" y="222" font-family="Microsoft YaHei, Arial, sans-serif" font-size="24" font-weight="bold" fill="#17313A" text-anchor="start">任务管理</text><rect x="480" y="250" width="288" height="146" rx="14" fill="#EDF2F6" stroke="#D8E0E8" stroke-width="1"/><rect x="506" y="278" width="236" height="22" rx="11" fill="#FFFFFF" stroke="#D8E0E8" stroke-width="1"/><rect x="506" y="316" width="188" height="22" rx="11" fill="#FFFFFF" stroke="#D8E0E8" stroke-width="1"/><rect x="506" y="354" width="226" height="22" rx="11" fill="#FFFFFF" stroke="#D8E0E8" stroke-width="1"/><circle cx="496" cy="440" r="5" fill="#5B8DEF"/><text x="512" y="446" font-family="Microsoft YaHei, Arial, sans-serif" font-size="16" font-weight="normal" fill="#1F2937" text-anchor="start">训练进程</text><circle cx="496" cy="476" r="5" fill="#5B8DEF"/><text x="512" y="482" font-family="Microsoft YaHei, Arial, sans-serif" font-size="16" font-weight="normal" fill="#1F2937" text-anchor="start">任务状态</text><circle cx="496" cy="512" r="5" fill="#5B8DEF"/><text x="512" y="518" font-family="Microsoft YaHei, Arial, sans-serif" font-size="16" font-weight="normal" fill="#1F2937" text-anchor="start">进程细节</text><rect x="828" y="174" width="340" height="460" rx="12" fill="#17313A" fill-opacity="0.05"/><rect x="824" y="168" width="340" height="460" rx="12" fill="#FFFFFF" stroke="#D8E0E8" stroke-width="1"/><rect x="824" y="168" width="340" height="6" rx="12" fill="#19A38C"/><!-- icon: cog -->
  <g transform="translate(852.0, 200.0) scale(1.75)" fill="#19A38C">
    <path fill-rule="evenodd" clip-rule="evenodd" d="M6.50001 0H9.50001L10.0939 2.37548C10.7276 2.6115 11.3107 2.95155 11.8223 3.37488L14.1782 2.70096L15.6782 5.29904L13.9173 7.00166C13.9717 7.32634 14 7.65987 14 8C14 8.34013 13.9717 8.67366 13.9173 8.99834L15.6782 10.701L14.1782 13.299L11.8223 12.6251C11.3107 13.0484 10.7276 13.3885 10.0939 13.6245L9.50001 16H6.50001L5.90614 13.6245C5.27242 13.3885 4.68934 13.0484 4.17768 12.6251L1.82181 13.299L0.321808 10.701L2.08269 8.99834C2.02831 8.67366 2.00001 8.34013 2.00001 8C2.00001 7.65987 2.02831 7.32634 2.08269 7.00166L0.321808 5.29904L1.82181 2.70096L4.17768 3.37488C4.68934 2.95155 5.27241 2.6115 5.90614 2.37548L6.50001 0ZM8.00001 10C9.10458 10 10 9.10457 10 8C10 6.89543 9.10458 6 8.00001 6C6.89544 6 6.00001 6.89543 6.00001 8C6.00001 9.10457 6.89544 10 8.00001 10Z"/>
  </g><text x="896" y="222" font-family="Microsoft YaHei, Arial, sans-serif" font-size="24" font-weight="bold" fill="#17313A" text-anchor="start">调度与能耗</text><rect x="850" y="250" width="288" height="146" rx="14" fill="#EDF2F6" stroke="#D8E0E8" stroke-width="1"/><rect x="882" y="280" width="220" height="22" rx="11" fill="#FFFFFF" stroke="#D8E0E8" stroke-width="1"/><rect x="882" y="320" width="160" height="22" rx="11" fill="#19A38C"/><rect x="882" y="360" width="198" height="22" rx="11" fill="#FFFFFF" stroke="#D8E0E8" stroke-width="1"/><circle cx="866" cy="440" r="5" fill="#19A38C"/><text x="882" y="446" font-family="Microsoft YaHei, Arial, sans-serif" font-size="16" font-weight="normal" fill="#1F2937" text-anchor="start">调度状态</text><circle cx="866" cy="476" r="5" fill="#19A38C"/><text x="882" y="482" font-family="Microsoft YaHei, Arial, sans-serif" font-size="16" font-weight="normal" fill="#1F2937" text-anchor="start">功耗治理</text><circle cx="866" cy="512" r="5" fill="#19A38C"/><text x="882" y="518" font-family="Microsoft YaHei, Arial, sans-serif" font-size="16" font-weight="normal" fill="#1F2937" text-anchor="start">长期优化空间</text></svg>