<svg xmlns="http://www.w3.org/2000/svg" width="1420" height="740" viewBox="0 0 1420 740"><style>.bg{fill:#F4F7FB}.card{fill:#FFFFFF;stroke:#D7E1EC;stroke-width:1.4}.title{font:700 32px 'Microsoft YaHei','Noto Sans SC',sans-serif;fill:#102033}.subtitle{font:500 16px 'Microsoft YaHei','Noto Sans SC',sans-serif;fill:#566579}.h{font:700 18px 'Microsoft YaHei','Noto Sans SC',sans-serif;fill:#102033}.p{font:500 14px 'Microsoft YaHei','Noto Sans SC',sans-serif;fill:#566579}.s{font:500 12px 'Microsoft YaHei','Noto Sans SC',sans-serif;fill:#566579}.k{font:700 14px 'Microsoft YaHei','Noto Sans SC',sans-serif;fill:#102033}</style><rect class="bg" x="0" y="0" width="1420" height="740" rx="28"/><text class="title" x="42" y="58">图 19  实验 A 时间线：功耗越阈到治理回落</text><text class="subtitle" x="42" y="86">把真实样本按时间展开，直接展示告警阈值、人工调度动作和治理后稳定区间之间的关系。</text><rect class="card" x="42" y="126" width="828" height="368" rx="24"/><rect class="card" x="42" y="520" width="828" height="178" rx="24"/><rect class="card" x="900" y="126" width="478" height="572" rx="24"/><rect x="74.0" y="176.0" width="98.8" height="280.0" fill="#E8F1FF" opacity="0.45"/><text class="s" x="123.4" y="194.0" text-anchor="middle">空闲基线</text><rect x="206.8" y="176.0" width="65.1" height="280.0" fill="#FFF4E5" opacity="0.45"/><text class="s" x="239.4" y="194.0" text-anchor="middle">负载爬升</text><rect x="285.8" y="176.0" width="548.2" height="280.0" fill="#ECFDF5" opacity="0.45"/><text class="s" x="559.9" y="194.0" text-anchor="middle">治理后观测</text><rect x="74.0" y="176.0" width="760.0" height="280.0" fill="#FFFFFF" stroke="#D7E1EC" stroke-width="1.2"/><line x1="74.0" y1="450.0" x2="834.0" y2="450.0" stroke="#E6EDF5" stroke-width="1"/><text class="s" x="64.0" y="454.0" text-anchor="end">0</text><line x1="74.0" y1="377.2" x2="834.0" y2="377.2" stroke="#E6EDF5" stroke-width="1"/><text class="s" x="64.0" y="381.2" text-anchor="end">100</text><line x1="74.0" y1="304.5" x2="834.0" y2="304.5" stroke="#E6EDF5" stroke-width="1"/><text class="s" x="64.0" y="308.5" text-anchor="end">200</text><line x1="74.0" y1="231.7" x2="834.0" y2="231.7" stroke="#E6EDF5" stroke-width="1"/><text class="s" x="64.0" y="235.7" text-anchor="end">300</text><line x1="338.9" y1="176.0" x2="338.9" y2="456.0" stroke="#F1F5F9" stroke-width="1"/><text class="s" x="338.9" y="476.0" text-anchor="middle">20</text><line x1="618.5" y1="176.0" x2="618.5" y2="456.0" stroke="#F1F5F9" stroke-width="1"/><text class="s" x="618.5" y="476.0" text-anchor="middle">40</text><text class="s" x="454.0" y="500.0" text-anchor="middle">Elapsed Time (s)</text><text class="s" x="22.0" y="316.0" text-anchor="middle" transform="rotate(-90 22.0 316.0)">Power (W)</text><polyline points="74.0,436.6 105.7,436.7 137.9,429.0 172.8,436.7 206.8,436.7 239.1,404.3 271.9,214.1 285.8,256.9 316.9,260.3 348.0,260.9 383.1,260.1 417.4,260.1 448.9,260.9 480.6,260.6 511.7,261.0 544.9,259.9 577.6,259.9 609.6,260.5 641.8,260.9 674.5,261.1 707.2,260.1 738.5,260.8 770.5,260.1 802.3,260.0 834.0,261.2" fill="none" stroke="#2563EB" stroke-width="3.0" stroke-linejoin="round" stroke-linecap="round"/><circle cx="74.0" cy="436.6" r="3.2" fill="#2563EB" stroke="#FFFFFF" stroke-width="1.2"/><circle cx="105.7" cy="436.7" r="3.2" fill="#2563EB" stroke="#FFFFFF" stroke-width="1.2"/><circle cx="137.9" cy="429.0" r="3.2" fill="#2563EB" stroke="#FFFFFF" stroke-width="1.2"/><circle cx="172.8" cy="436.7" r="3.2" fill="#2563EB" stroke="#FFFFFF" stroke-width="1.2"/><circle cx="206.8" cy="436.7" r="3.2" fill="#2563EB" stroke="#FFFFFF" stroke-width="1.2"/><circle cx="239.1" cy="404.3" r="3.2" fill="#2563EB" stroke="#FFFFFF" stroke-width="1.2"/><circle cx="271.9" cy="214.1" r="3.2" fill="#2563EB" stroke="#FFFFFF" stroke-width="1.2"/><circle cx="285.8" cy="256.9" r="3.2" fill="#2563EB" stroke="#FFFFFF" stroke-width="1.2"/><circle cx="316.9" cy="260.3" r="3.2" fill="#2563EB" stroke="#FFFFFF" stroke-width="1.2"/><circle cx="348.0" cy="260.9" r="3.2" fill="#2563EB" stroke="#FFFFFF" stroke-width="1.2"/><circle cx="383.1" cy="260.1" r="3.2" fill="#2563EB" stroke="#FFFFFF" stroke-width="1.2"/><circle cx="417.4" cy="260.1" r="3.2" fill="#2563EB" stroke="#FFFFFF" stroke-width="1.2"/><circle cx="448.9" cy="260.9" r="3.2" fill="#2563EB" stroke="#FFFFFF" stroke-width="1.2"/><circle cx="480.6" cy="260.6" r="3.2" fill="#2563EB" stroke="#FFFFFF" stroke-width="1.2"/><circle cx="511.7" cy="261.0" r="3.2" fill="#2563EB" stroke="#FFFFFF" stroke-width="1.2"/><circle cx="544.9" cy="259.9" r="3.2" fill="#2563EB" stroke="#FFFFFF" stroke-width="1.2"/><circle cx="577.6" cy="259.9" r="3.2" fill="#2563EB" stroke="#FFFFFF" stroke-width="1.2"/><circle cx="609.6" cy="260.5" r="3.2" fill="#2563EB" stroke="#FFFFFF" stroke-width="1.2"/><circle cx="641.8" cy="260.9" r="3.2" fill="#2563EB" stroke="#FFFFFF" stroke-width="1.2"/><circle cx="674.5" cy="261.1" r="3.2" fill="#2563EB" stroke="#FFFFFF" stroke-width="1.2"/><circle cx="707.2" cy="260.1" r="3.2" fill="#2563EB" stroke="#FFFFFF" stroke-width="1.2"/><circle cx="738.5" cy="260.8" r="3.2" fill="#2563EB" stroke="#FFFFFF" stroke-width="1.2"/><circle cx="770.5" cy="260.1" r="3.2" fill="#2563EB" stroke="#FFFFFF" stroke-width="1.2"/><circle cx="802.3" cy="260.0" r="3.2" fill="#2563EB" stroke="#FFFFFF" stroke-width="1.2"/><circle cx="834.0" cy="261.2" r="3.2" fill="#2563EB" stroke="#FFFFFF" stroke-width="1.2"/><polyline points="74.0,195.3 105.7,195.3 137.9,195.3 172.8,195.3 206.8,195.3 239.1,195.3 271.9,195.3 285.8,260.1 316.9,260.1 348.0,260.1 383.1,260.1 417.4,260.1 448.9,260.1 480.6,260.1 511.7,260.1 544.9,260.1 577.6,260.1 609.6,260.1 641.8,260.1 674.5,260.1 707.2,260.1 738.5,260.1 770.5,260.1 802.3,260.1 834.0,260.1" fill="none" stroke="#059669" stroke-width="3.0" stroke-linejoin="round" stroke-linecap="round"/><circle cx="74.0" cy="195.3" r="3.2" fill="#059669" stroke="#FFFFFF" stroke-width="1.2"/><circle cx="105.7" cy="195.3" r="3.2" fill="#059669" stroke="#FFFFFF" stroke-width="1.2"/><circle cx="137.9" cy="195.3" r="3.2" fill="#059669" stroke="#FFFFFF" stroke-width="1.2"/><circle cx="172.8" cy="195.3" r="3.2" fill="#059669" stroke="#FFFFFF" stroke-width="1.2"/><circle cx="206.8" cy="195.3" r="3.2" fill="#059669" stroke="#FFFFFF" stroke-width="1.2"/><circle cx="239.1" cy="195.3" r="3.2" fill="#059669" stroke="#FFFFFF" stroke-width="1.2"/><circle cx="271.9" cy="195.3" r="3.2" fill="#059669" stroke="#FFFFFF" stroke-width="1.2"/><circle cx="285.8" cy="260.1" r="3.2" fill="#059669" stroke="#FFFFFF" stroke-width="1.2"/><circle cx="316.9" cy="260.1" r="3.2" fill="#059669" stroke="#FFFFFF" stroke-width="1.2"/><circle cx="348.0" cy="260.1" r="3.2" fill="#059669" stroke="#FFFFFF" stroke-width="1.2"/><circle cx="383.1" cy="260.1" r="3.2" fill="#059669" stroke="#FFFFFF" stroke-width="1.2"/><circle cx="417.4" cy="260.1" r="3.2" fill="#059669" stroke="#FFFFFF" stroke-width="1.2"/><circle cx="448.9" cy="260.1" r="3.2" fill="#059669" stroke="#FFFFFF" stroke-width="1.2"/><circle cx="480.6" cy="260.1" r="3.2" fill="#059669" stroke="#FFFFFF" stroke-width="1.2"/><circle cx="511.7" cy="260.1" r="3.2" fill="#059669" stroke="#FFFFFF" stroke-width="1.2"/><circle cx="544.9" cy="260.1" r="3.2" fill="#059669" stroke="#FFFFFF" stroke-width="1.2"/><circle cx="577.6" cy="260.1" r="3.2" fill="#059669" stroke="#FFFFFF" stroke-width="1.2"/><circle cx="609.6" cy="260.1" r="3.2" fill="#059669" stroke="#FFFFFF" stroke-width="1.2"/><circle cx="641.8" cy="260.1" r="3.2" fill="#059669" stroke="#FFFFFF" stroke-width="1.2"/><circle cx="674.5" cy="260.1" r="3.2" fill="#059669" stroke="#FFFFFF" stroke-width="1.2"/><circle cx="707.2" cy="260.1" r="3.2" fill="#059669" stroke="#FFFFFF" stroke-width="1.2"/><circle cx="738.5" cy="260.1" r="3.2" fill="#059669" stroke="#FFFFFF" stroke-width="1.2"/><circle cx="770.5" cy="260.1" r="3.2" fill="#059669" stroke="#FFFFFF" stroke-width="1.2"/><circle cx="802.3" cy="260.1" r="3.2" fill="#059669" stroke="#FFFFFF" stroke-width="1.2"/><circle cx="834.0" cy="260.1" r="3.2" fill="#059669" stroke="#FFFFFF" stroke-width="1.2"/><line x1="74.0" y1="217.1" x2="834.0" y2="217.1" stroke="#DC2626" stroke-width="2" stroke-dasharray="8 6"/><text class="s" x="80.0" y="209.1">阈值 320W</text><line x1="285.8" y1="176.0" x2="285.8" y2="456.0" stroke="#D97706" stroke-width="2.5" stroke-dasharray="8 6"/><text class="s" x="291.8" y="194.0">治理动作</text><line x1="84.0" y1="148.0" x2="102.0" y2="148.0" stroke="#2563EB" stroke-width="3"/><circle cx="93.0" cy="148.0" r="3" fill="#2563EB"/><text class="s" x="110.0" y="152.0">实测功耗</text><line x1="218.0" y1="148.0" x2="236.0" y2="148.0" stroke="#059669" stroke-width="3"/><circle cx="227.0" cy="148.0" r="3" fill="#059669"/><text class="s" x="244.0" y="152.0">功耗上限</text><line x1="352.0" y1="148.0" x2="370.0" y2="148.0" stroke="#DC2626" stroke-width="3"/><circle cx="361.0" cy="148.0" r="3" fill="#DC2626"/><text class="s" x="378.0" y="152.0">阈值线</text><line x1="480.5" y1="148.0" x2="498.5" y2="148.0" stroke="#D97706" stroke-width="3"/><circle cx="489.5" cy="148.0" r="3" fill="#D97706"/><text class="s" x="506.5" y="152.0">动作时刻</text><text class="h" x="74" y="164">GPU3 功耗与功耗上限时间线</text><rect x="74.0" y="520.0" width="760.0" height="122.0" fill="#FFFFFF" stroke="#D7E1EC" stroke-width="1.2"/><line x1="74.0" y1="576.3" x2="834.0" y2="576.3" stroke="#E6EDF5" stroke-width="1"/><text class="s" x="64.0" y="580.3" text-anchor="end">400</text><line x1="338.9" y1="520.0" x2="338.9" y2="642.0" stroke="#F1F5F9" stroke-width="1"/><text class="s" x="338.9" y="662.0" text-anchor="middle">20</text><line x1="618.5" y1="520.0" x2="618.5" y2="642.0" stroke="#F1F5F9" stroke-width="1"/><text class="s" x="618.5" y="662.0" text-anchor="middle">40</text><text class="s" x="454.0" y="686.0" text-anchor="middle">Elapsed Time (s)</text><text class="s" x="22.0" y="581.0" text-anchor="middle" transform="rotate(-90 22.0 581.0)">Total Power (W)</text><polyline points="74.0,627.5 105.7,633.6 137.9,630.9 172.8,629.0 206.8,633.2 239.1,619.8 271.9,528.4 285.8,550.1 316.9,553.8 348.0,554.0 383.1,547.6 417.4,553.7 448.9,554.0 480.6,551.3 511.7,553.9 544.9,553.5 577.6,547.5 609.6,553.7 641.8,553.9 674.5,548.3 707.2,553.6 738.5,554.1 770.5,548.9 802.3,553.5 834.0,554.7" fill="none" stroke="#64748B" stroke-width="3.0" stroke-linejoin="round" stroke-linecap="round"/><circle cx="74.0" cy="627.5" r="3.2" fill="#64748B" stroke="#FFFFFF" stroke-width="1.2"/><circle cx="105.7" cy="633.6" r="3.2" fill="#64748B" stroke="#FFFFFF" stroke-width="1.2"/><circle cx="137.9" cy="630.9" r="3.2" fill="#64748B" stroke="#FFFFFF" stroke-width="1.2"/><circle cx="172.8" cy="629.0" r="3.2" fill="#64748B" stroke="#FFFFFF" stroke-width="1.2"/><circle cx="206.8" cy="633.2" r="3.2" fill="#64748B" stroke="#FFFFFF" stroke-width="1.2"/><circle cx="239.1" cy="619.8" r="3.2" fill="#64748B" stroke="#FFFFFF" stroke-width="1.2"/><circle cx="271.9" cy="528.4" r="3.2" fill="#64748B" stroke="#FFFFFF" stroke-width="1.2"/><circle cx="285.8" cy="550.1" r="3.2" fill="#64748B" stroke="#FFFFFF" stroke-width="1.2"/><circle cx="316.9" cy="553.8" r="3.2" fill="#64748B" stroke="#FFFFFF" stroke-width="1.2"/><circle cx="348.0" cy="554.0" r="3.2" fill="#64748B" stroke="#FFFFFF" stroke-width="1.2"/><circle cx="383.1" cy="547.6" r="3.2" fill="#64748B" stroke="#FFFFFF" stroke-width="1.2"/><circle cx="417.4" cy="553.7" r="3.2" fill="#64748B" stroke="#FFFFFF" stroke-width="1.2"/><circle cx="448.9" cy="554.0" r="3.2" fill="#64748B" stroke="#FFFFFF" stroke-width="1.2"/><circle cx="480.6" cy="551.3" r="3.2" fill="#64748B" stroke="#FFFFFF" stroke-width="1.2"/><circle cx="511.7" cy="553.9" r="3.2" fill="#64748B" stroke="#FFFFFF" stroke-width="1.2"/><circle cx="544.9" cy="553.5" r="3.2" fill="#64748B" stroke="#FFFFFF" stroke-width="1.2"/><circle cx="577.6" cy="547.5" r="3.2" fill="#64748B" stroke="#FFFFFF" stroke-width="1.2"/><circle cx="609.6" cy="553.7" r="3.2" fill="#64748B" stroke="#FFFFFF" stroke-width="1.2"/><circle cx="641.8" cy="553.9" r="3.2" fill="#64748B" stroke="#FFFFFF" stroke-width="1.2"/><circle cx="674.5" cy="548.3" r="3.2" fill="#64748B" stroke="#FFFFFF" stroke-width="1.2"/><circle cx="707.2" cy="553.6" r="3.2" fill="#64748B" stroke="#FFFFFF" stroke-width="1.2"/><circle cx="738.5" cy="554.1" r="3.2" fill="#64748B" stroke="#FFFFFF" stroke-width="1.2"/><circle cx="770.5" cy="548.9" r="3.2" fill="#64748B" stroke="#FFFFFF" stroke-width="1.2"/><circle cx="802.3" cy="553.5" r="3.2" fill="#64748B" stroke="#FFFFFF" stroke-width="1.2"/><circle cx="834.0" cy="554.7" r="3.2" fill="#64748B" stroke="#FFFFFF" stroke-width="1.2"/><line x1="285.8" y1="520.0" x2="285.8" y2="642.0" stroke="#D97706" stroke-width="2.5" stroke-dasharray="8 6"/><text class="s" x="291.8" y="538.0">动作</text><text class="h" x="74" y="510">集群总功率变化</text><text class="s" x="920" y="176">怎么读这张图</text><text class="p" x="920" y="208">1. 蓝线是 GPU3 实测功耗，绿线是当前功耗上限。</text><text class="p" x="920" y="236">2. 红虚线是 320W 告警阈值，蓝线穿越后触发一次真实告警。</text><text class="p" x="920" y="264">3. 橙虚线是人工调度动作生效时刻，之后绿线从 350W 切到 261W。</text><text class="p" x="920" y="292">4. 治理后蓝线稳定贴近 261W，18 个连续采样点全部低于阈值。</text><text class="p" x="920" y="334">峰值功耗：324.24W</text><text class="p" x="920" y="362">首次治理后功耗：265.42W</text><text class="p" x="920" y="390">首次治理后总功率：479.66W</text><text class="p" x="920" y="418">人工治理动作：set_power_limit GPU 3 -> 261W</text><text class="p" x="920" y="446">治理前后总功率回落：65.64W</text><text class="p" x="920" y="474">工作负载 PID：1856343</text><text class="s" x="920" y="526">阶段底色</text><text class="p" x="920" y="556">蓝色：空闲基线  橙色：负载爬升  绿色：治理后观测窗口</text><rect x="920" y="604" width="188" height="64" rx="18" fill="#FFFFFF" stroke="#2563EB" stroke-width="1.4"/><text class="s" x="938" y="629">基线均值</text><text class="h" x="938" y="651" fill="#2563EB">20.98W</text><rect x="1130" y="604" width="108" height="64" rx="18" fill="#FFFFFF" stroke="#DC2626" stroke-width="1.4"/><text class="s" x="1148" y="629">峰值</text><text class="h" x="1148" y="651" fill="#DC2626">324.24W</text><rect x="1254" y="604" width="112" height="64" rx="18" fill="#FFFFFF" stroke="#059669" stroke-width="1.4"/><text class="s" x="1272" y="629">后均值</text><text class="h" x="1272" y="651" fill="#059669">260.71W</text></svg>