<svg xmlns="http://www.w3.org/2000/svg" width="1420" height="760" viewBox="0 0 1420 760"><style>.bg{fill:#F4F7FB}.card{fill:#FFFFFF;stroke:#D7E1EC;stroke-width:1.4}.title{font:700 32px 'Microsoft YaHei','Noto Sans SC',sans-serif;fill:#102033}.subtitle{font:500 16px 'Microsoft YaHei','Noto Sans SC',sans-serif;fill:#566579}.h{font:700 18px 'Microsoft YaHei','Noto Sans SC',sans-serif;fill:#102033}.p{font:500 14px 'Microsoft YaHei','Noto Sans SC',sans-serif;fill:#566579}.s{font:500 12px 'Microsoft YaHei','Noto Sans SC',sans-serif;fill:#566579}.k{font:700 14px 'Microsoft YaHei','Noto Sans SC',sans-serif;fill:#102033}</style><rect class="bg" x="0" y="0" width="1420" height="760" rx="28"/><text class="title" x="42" y="58">治理卡与对照卡效果对比</text><text class="subtitle" x="42" y="86">把双卡实验压缩成评审最关心的 4 组指标：峰值、治理后均值、温度、后窗清洁率。</text><rect class="card" x="42" y="126" width="1336" height="458" rx="24"/><text class="h" x="68" y="164">功耗、温度与清洁率对比</text><rect x="96" y="250" width="110" height="220" rx="14" fill="#E7EEF7"/><rect x="96" y="258" width="110" height="212" rx="14" fill="#2563EB"/><text class="k" x="96" y="496">治理峰值</text><text class="s" x="96" y="514">348</text><rect x="230" y="250" width="110" height="220" rx="14" fill="#E7EEF7"/><rect x="230" y="271" width="110" height="199" rx="14" fill="#D97706"/><text class="k" x="230" y="496">对照峰值</text><text class="s" x="230" y="514">326</text><rect x="406" y="250" width="110" height="220" rx="14" fill="#E7EEF7"/><rect x="406" y="307" width="110" height="163" rx="14" fill="#2563EB"/><text class="k" x="406" y="496">治理后均值</text><text class="s" x="406" y="514">268</text><rect x="540" y="250" width="110" height="220" rx="14" fill="#E7EEF7"/><rect x="540" y="270" width="110" height="200" rx="14" fill="#D97706"/><text class="k" x="540" y="496">对照后均值</text><text class="s" x="540" y="514">328</text><rect x="716" y="250" width="110" height="220" rx="14" fill="#E7EEF7"/><rect x="716" y="322" width="110" height="148" rx="14" fill="#2563EB"/><text class="k" x="716" y="496">治理后温度</text><text class="s" x="716" y="514">81</text><rect x="850" y="250" width="110" height="220" rx="14" fill="#E7EEF7"/><rect x="850" y="338" width="110" height="132" rx="14" fill="#D97706"/><text class="k" x="850" y="496">对照后温度</text><text class="s" x="850" y="514">72</text><rect x="1026" y="250" width="110" height="220" rx="14" fill="#E7EEF7"/><rect x="1026" y="250" width="110" height="220" rx="14" fill="#059669"/><text class="k" x="1026" y="496">治理清洁率</text><text class="s" x="1026" y="514">100</text><rect x="1160" y="250" width="110" height="220" rx="14" fill="#E7EEF7"/><rect x="1160" y="462" width="110" height="8" rx="14" fill="#DC2626"/><text class="k" x="1160" y="496">对照清洁率</text><text class="s" x="1160" y="514">0</text><rect class="card" x="54" y="610" width="408" height="120" rx="22"/><rect x="72" y="628" width="86" height="10" rx="5" fill="#2563EB"/><text class="h" x="72" y="662">治理卡</text><text class="p" x="72" y="688"><tspan x="72" dy="0">峰值 348.37W -&gt; 后窗均值 268.44W</tspan><tspan x="72" dy="22">后窗越阈样本 0 / 18</tspan></text><rect class="card" x="506" y="610" width="408" height="120" rx="22"/><rect x="524" y="628" width="86" height="10" rx="5" fill="#D97706"/><text class="h" x="524" y="662">对照卡</text><text class="p" x="524" y="688"><tspan x="524" dy="0">峰值 325.77W -&gt; 后窗均值 328.26W</tspan><tspan x="524" dy="22">后窗越阈样本 18 / 18</tspan></text><rect class="card" x="958" y="610" width="408" height="120" rx="22"/><rect x="976" y="628" width="86" height="10" rx="5" fill="#059669"/><text class="h" x="976" y="662">核心差异</text><text class="p" x="976" y="688"><tspan x="976" dy="0">后窗功耗差 59.82W</tspan><tspan x="976" dy="22">治理卡清洁率 100%，对照卡清洁率 0%</tspan></text></svg>