<svg xmlns="http://www.w3.org/2000/svg" viewBox="0 0 1280 720" width="1280" height="720"><defs><linearGradient id="titleGradient" x1="0%" y1="0%" x2="100%" y2="0%"><stop offset="0%" stop-color="#17313A"/><stop offset="100%" stop-color="#19A38C"/></linearGradient><radialGradient id="bgDecor" cx="80%" cy="12%" r="42%"><stop offset="0%" stop-color="#5B8DEF" stop-opacity="0.08"/><stop offset="100%" stop-color="#5B8DEF" stop-opacity="0"/></radialGradient></defs><rect x="0" y="0" width="1280" height="720" rx="0" fill="#F7F9FB"/><rect x="0" y="0" width="1280" height="720" rx="0" fill="url(#bgDecor)"/><rect x="0" y="0" width="1280" height="6" rx="0" fill="url(#titleGradient)"/><text x="56" y="45" font-family="Microsoft YaHei, Arial, sans-serif" font-size="29" font-weight="bold" fill="#17313A" text-anchor="start">导入准备页剥离接入逻辑</text><rect x="56" y="64" width="1168" height="44" rx="10" fill="#17313A"/><text x="78" y="92" font-family="Microsoft YaHei, Arial, sans-serif" font-size="18" font-weight="bold" fill="#FFFFFF" text-anchor="start">接入来源、已保存主机、硬件扫描和选卡导入都被前置到控制台之前。</text><line x1="0" y1="694" x2="1280" y2="694" stroke="#D8E0E8" stroke-width="1"/><text x="40" y="711" font-family="Microsoft YaHei, Arial, sans-serif" font-size="10" font-weight="normal" fill="#8A94A3" text-anchor="start">Source: AI DataCenter repository and implemented product features</text><text x="640" y="711" font-family="Microsoft YaHei, Arial, sans-serif" font-size="10" font-weight="normal" fill="#8A94A3" text-anchor="middle">STRICTLY CONFIDENTIAL  |  AI DATACENTER SHOWCASE</text><text x="1240" y="711" font-family="Microsoft YaHei, Arial, sans-serif" font-size="10" font-weight="normal" fill="#8A94A3" text-anchor="end">9</text><rect x="82" y="162" width="1124" height="470" rx="16" fill="#17313A" fill-opacity="0.05"/><rect x="78" y="156" width="1124" height="470" rx="16" fill="#FFFFFF" stroke="#D8E0E8" stroke-width="1"/><rect x="78" y="156" width="1124" height="34" rx="16" fill="#EDF2F6"/><circle cx="96" cy="173" r="5" fill="#D9485F"/><circle cx="112" cy="173" r="5" fill="#F59E0B"/><circle cx="128" cy="173" r="5" fill="#1F9D68"/><text x="156" y="178" font-family="Microsoft YaHei, Arial, sans-serif" font-size="12" font-weight="normal" fill="#5B6776" text-anchor="start">Import Preparation Workspace</text><rect x="110" y="194" width="236" height="400" rx="14" fill="#F1F5F9" stroke="#D8E0E8" stroke-width="1"/><text x="136" y="228" font-family="Microsoft YaHei, Arial, sans-serif" font-size="22" font-weight="bold" fill="#17313A" text-anchor="start">准备页侧栏</text><rect x="136" y="258" width="184" height="28" rx="14" fill="#17313A"/><text x="228.0" y="277" font-family="Microsoft YaHei, Arial, sans-serif" font-size="12" font-weight="bold" fill="#FFFFFF" text-anchor="middle">控制台只治理本次导入选中的卡</text><rect x="136" y="312" width="180" height="48" rx="12" fill="#FFFFFF" stroke="#D8E0E8" stroke-width="1"/><rect x="136" y="312" width="6" height="48" rx="12" fill="#17313A"/><text x="162" y="343" font-family="Microsoft YaHei, Arial, sans-serif" font-size="18" font-weight="bold" fill="#17313A" text-anchor="start">已保存主机</text><rect x="136" y="380" width="180" height="48" rx="12" fill="#FFFFFF" stroke="#D8E0E8" stroke-width="1"/><rect x="136" y="380" width="6" height="48" rx="12" fill="#19A38C"/><text x="162" y="411" font-family="Microsoft YaHei, Arial, sans-serif" font-size="18" font-weight="bold" fill="#17313A" text-anchor="start">连接来源</text><rect x="136" y="448" width="180" height="48" rx="12" fill="#FFFFFF" stroke="#D8E0E8" stroke-width="1"/><rect x="136" y="448" width="6" height="48" rx="12" fill="#5B8DEF"/><text x="162" y="479" font-family="Microsoft YaHei, Arial, sans-serif" font-size="18" font-weight="bold" fill="#17313A" text-anchor="start">硬件概览</text><rect x="136" y="516" width="180" height="48" rx="12" fill="#FFFFFF" stroke="#D8E0E8" stroke-width="1"/><rect x="136" y="516" width="6" height="48" rx="12" fill="#1F9D68"/><text x="162" y="547" font-family="Microsoft YaHei, Arial, sans-serif" font-size="18" font-weight="bold" fill="#17313A" text-anchor="start">选卡导入</text><rect x="374" y="194" width="794" height="72" rx="14" fill="#FFFFFF" stroke="#D8E0E8" stroke-width="1"/><text x="404" y="238" font-family="Microsoft YaHei, Arial, sans-serif" font-size="22" font-weight="bold" fill="#17313A" text-anchor="start">工作区主体是各个阶段的入口，不再混入控制台逻辑</text><rect x="374" y="286" width="794" height="308" rx="14" fill="#F7F9FB" stroke="#D8E0E8" stroke-width="1"/><rect x="410" y="326" width="330" height="94" rx="14" fill="#17313A" fill-opacity="0.05"/><rect x="406" y="320" width="330" height="94" rx="14" fill="#FFFFFF" stroke="#D8E0E8" stroke-width="1"/><rect x="406" y="320" width="330" height="6" rx="12" fill="#17313A"/><text x="428" y="354" font-family="Microsoft YaHei, Arial, sans-serif" font-size="18" font-weight="bold" fill="#17313A" text-anchor="start">复用已保存主机</text><text x="428" y="382" font-family="Microsoft YaHei, Arial, sans-serif" font-size="14" font-weight="normal" fill="#5B6776" text-anchor="start"><tspan x="428" dy="0">优先复用成功连接过的目标</tspan></text><rect x="784" y="326" width="330" height="94" rx="14" fill="#17313A" fill-opacity="0.05"/><rect x="780" y="320" width="330" height="94" rx="14" fill="#FFFFFF" stroke="#D8E0E8" stroke-width="1"/><rect x="780" y="320" width="330" height="6" rx="12" fill="#19A38C"/><text x="802" y="354" font-family="Microsoft YaHei, Arial, sans-serif" font-size="18" font-weight="bold" fill="#17313A" text-anchor="start">切换到手动连接</text><text x="802" y="382" font-family="Microsoft YaHei, Arial, sans-serif" font-size="14" font-weight="normal" fill="#5B6776" text-anchor="start"><tspan x="802" dy="0">支持本机 Agent、远程 Agent、SSH Linux</tspan></text><rect x="410" y="448" width="330" height="94" rx="14" fill="#17313A" fill-opacity="0.05"/><rect x="406" y="442" width="330" height="94" rx="14" fill="#FFFFFF" stroke="#D8E0E8" stroke-width="1"/><rect x="406" y="442" width="330" height="6" rx="12" fill="#5B8DEF"/><text x="428" y="476" font-family="Microsoft YaHei, Arial, sans-serif" font-size="18" font-weight="bold" fill="#17313A" text-anchor="start">先看硬件摘要</text><text x="428" y="504" font-family="Microsoft YaHei, Arial, sans-serif" font-size="14" font-weight="normal" fill="#5B6776" text-anchor="start"><tspan x="428" dy="0">扫描后确认 CPU / GPU 当前状态</tspan></text><rect x="784" y="448" width="330" height="94" rx="14" fill="#17313A" fill-opacity="0.05"/><rect x="780" y="442" width="330" height="94" rx="14" fill="#FFFFFF" stroke="#D8E0E8" stroke-width="1"/><rect x="780" y="442" width="330" height="6" rx="12" fill="#1F9D68"/><text x="802" y="476" font-family="Microsoft YaHei, Arial, sans-serif" font-size="18" font-weight="bold" fill="#17313A" text-anchor="start">最后选择导入范围</text><text x="802" y="504" font-family="Microsoft YaHei, Arial, sans-serif" font-size="14" font-weight="normal" fill="#5B6776" text-anchor="start"><tspan x="802" dy="0">提交后进入只治理导入范围的控制台</tspan></text></svg>