<svg xmlns="http://www.w3.org/2000/svg" viewBox="0 0 1280 720" width="1280" height="720"><defs><linearGradient id="titleGradient" x1="0%" y1="0%" x2="100%" y2="0%"><stop offset="0%" stop-color="#17313A"/><stop offset="100%" stop-color="#19A38C"/></linearGradient><radialGradient id="bgDecor" cx="80%" cy="12%" r="42%"><stop offset="0%" stop-color="#5B8DEF" stop-opacity="0.08"/><stop offset="100%" stop-color="#5B8DEF" stop-opacity="0"/></radialGradient></defs><rect x="0" y="0" width="1280" height="720" rx="0" fill="#F7F9FB"/><rect x="0" y="0" width="1280" height="720" rx="0" fill="url(#bgDecor)"/><rect x="0" y="0" width="1280" height="6" rx="0" fill="url(#titleGradient)"/><text x="56" y="45" font-family="Microsoft YaHei, Arial, sans-serif" font-size="29" font-weight="bold" fill="#17313A" text-anchor="start">主密钥保障凭据加密复用</text><rect x="56" y="64" width="1168" height="44" rx="10" fill="#17313A"/><text x="78" y="92" font-family="Microsoft YaHei, Arial, sans-serif" font-size="18" font-weight="bold" fill="#FFFFFF" text-anchor="start">凭据可以被复用，但前提是它们在平台侧始终以受控、加密和可追溯的方式保存。</text><line x1="0" y1="694" x2="1280" y2="694" stroke="#D8E0E8" stroke-width="1"/><text x="40" y="711" font-family="Microsoft YaHei, Arial, sans-serif" font-size="10" font-weight="normal" fill="#8A94A3" text-anchor="start">Source: AI DataCenter repository and implemented product features</text><text x="640" y="711" font-family="Microsoft YaHei, Arial, sans-serif" font-size="10" font-weight="normal" fill="#8A94A3" text-anchor="middle">STRICTLY CONFIDENTIAL  |  AI DATACENTER SHOWCASE</text><text x="1240" y="711" font-family="Microsoft YaHei, Arial, sans-serif" font-size="10" font-weight="normal" fill="#8A94A3" text-anchor="end">22</text><rect x="92" y="262" width="246" height="140" rx="12" fill="#17313A" fill-opacity="0.05"/><rect x="88" y="256" width="246" height="140" rx="12" fill="#FFFFFF" stroke="#D8E0E8" stroke-width="1"/><rect x="88" y="256" width="246" height="6" rx="12" fill="#17313A"/><text x="211" y="308" font-family="Microsoft YaHei, Arial, sans-serif" font-size="22" font-weight="bold" fill="#17313A" text-anchor="middle">录入凭据</text><rect x="378" y="262" width="246" height="140" rx="12" fill="#17313A" fill-opacity="0.05"/><rect x="374" y="256" width="246" height="140" rx="12" fill="#FFFFFF" stroke="#D8E0E8" stroke-width="1"/><rect x="374" y="256" width="246" height="6" rx="12" fill="#5B8DEF"/><text x="497" y="308" font-family="Microsoft YaHei, Arial, sans-serif" font-size="22" font-weight="bold" fill="#17313A" text-anchor="middle">主密钥加密</text><rect x="664" y="262" width="246" height="140" rx="12" fill="#17313A" fill-opacity="0.05"/><rect x="660" y="256" width="246" height="140" rx="12" fill="#FFFFFF" stroke="#D8E0E8" stroke-width="1"/><rect x="660" y="256" width="246" height="6" rx="12" fill="#19A38C"/><text x="783" y="308" font-family="Microsoft YaHei, Arial, sans-serif" font-size="22" font-weight="bold" fill="#17313A" text-anchor="middle">凭据仓库</text><rect x="950" y="262" width="246" height="140" rx="12" fill="#17313A" fill-opacity="0.05"/><rect x="946" y="256" width="246" height="140" rx="12" fill="#FFFFFF" stroke="#D8E0E8" stroke-width="1"/><rect x="946" y="256" width="246" height="6" rx="12" fill="#1F9D68"/><text x="1069" y="308" font-family="Microsoft YaHei, Arial, sans-serif" font-size="22" font-weight="bold" fill="#17313A" text-anchor="middle">自动复用</text><use data-icon="key" x="186" y="334" width="34" height="34" fill="#17313A"/><use data-icon="lock-closed" x="472" y="334" width="34" height="34" fill="#5B8DEF"/><use data-icon="database" x="758" y="334" width="34" height="34" fill="#19A38C"/><use data-icon="arrow-rotate-right" x="1044" y="334" width="34" height="34" fill="#1F9D68"/><line x1="344" y1="326" x2="364" y2="326" stroke="#5B8DEF" stroke-width="5"/><polygon points="364,326 350,318 350,334" fill="#5B8DEF"/><line x1="630" y1="326" x2="650" y2="326" stroke="#5B8DEF" stroke-width="5"/><polygon points="650,326 636,318 636,334" fill="#5B8DEF"/><line x1="916" y1="326" x2="936" y2="326" stroke="#5B8DEF" stroke-width="5"/><polygon points="936,326 922,318 922,334" fill="#5B8DEF"/><rect x="154" y="454" width="980" height="148" rx="12" fill="#17313A" fill-opacity="0.05"/><rect x="150" y="448" width="980" height="148" rx="12" fill="#FFFFFF" stroke="#D8E0E8" stroke-width="1"/><rect x="150" y="448" width="980" height="6" rx="12" fill="#D9485F"/><text x="180" y="484" font-family="Microsoft YaHei, Arial, sans-serif" font-size="22" font-weight="bold" fill="#17313A" text-anchor="start">显式失败原则</text><circle cx="196" cy="526" r="5" fill="#D9485F"/><text x="212" y="532" font-family="Microsoft YaHei, Arial, sans-serif" font-size="16" font-weight="normal" fill="#1F2937" text-anchor="start">主密钥只由启动环境提供，不写入源码或数据库</text><circle cx="196" cy="556" r="5" fill="#D9485F"/><text x="212" y="562" font-family="Microsoft YaHei, Arial, sans-serif" font-size="16" font-weight="normal" fill="#1F2937" text-anchor="start">主密钥缺失或解密失败时接口直接返回明确错误</text><circle cx="196" cy="586" r="5" fill="#D9485F"/><text x="212" y="592" font-family="Microsoft YaHei, Arial, sans-serif" font-size="16" font-weight="normal" fill="#1F2937" text-anchor="start">系统不做静默降级，也不伪造“可连接”状态</text></svg>